<svg width="256" height="256" viewBox="0 0 256 256" fill="none" xmlns="http://www.w3.org/2000/svg">
<rect width="256" height="256" rx="128" fill="#09090B"/>
<path d="M48.311 173V82.12H91.703C98.5297 82.12 104.46 83.2293 109.495 85.448C114.615 87.6667 118.54 90.7813 121.271 94.792C124.087 98.8027 125.495 103.539 125.495 109C125.495 113.267 124.684 117.064 123.063 120.392C121.442 123.635 119.095 126.323 116.023 128.456C112.951 130.589 109.239 132.04 104.887 132.808L104.631 131.528C111.031 131.528 115.81 132.893 118.967 135.624C122.124 138.269 123.874 142.195 124.215 147.4L126.263 173H100.663L99.383 151.752C99.2123 148.424 98.3163 145.992 96.695 144.456C95.0737 142.835 92.215 142.024 88.119 142.024H73.399V173H48.311ZM73.399 121.928H87.095C91.2763 121.928 94.4337 121.075 96.567 119.368C98.7857 117.576 99.895 115.101 99.895 111.944C99.895 108.701 98.7857 106.269 96.567 104.648C94.4337 103.027 91.2763 102.216 87.095 102.216H73.399V121.928ZM159.91 173C153.254 173 148.091 171.336 144.422 168.008C140.753 164.68 138.918 159.261 138.918 151.752V82.12H163.75V148.936C163.75 151.325 164.305 153.032 165.414 154.056C166.523 154.995 168.102 155.464 170.15 155.464H173.862V173H159.91Z" fill="white"/>
<path d="M182.561 173V82.12H207.649V173H182.561Z" fill="#00C38B"/>
</svg>
